<?xml version="1.0" standalone="no"?>
<!DOCTYPE svg PUBLIC "-//W3C//DTD SVG 20010904//EN"
 "http://www.w3.org/TR/2001/REC-SVG-20010904/DTD/svg10.dtd">
<svg version="1.0" xmlns="http://www.w3.org/2000/svg"
 width="191.000000pt" height="191.000000pt" viewBox="0 0 191.000000 191.000000"
 preserveAspectRatio="xMidYMid meet">
<metadata>
Created by potrace 1.11, written by Peter Selinger 2001-2013
</metadata>
<g transform="translate(0.000000,191.000000) scale(0.100000,-0.100000)"
fill="#000000" stroke="none">
<path d="M723 1885 c-109 -25 -240 -81 -332 -142 -67 -45 -206 -180 -249 -244
-41 -61 -99 -177 -123 -246 -17 -49 -19 -86 -19 -298 0 -264 4 -288 63 -413
17 -37 49 -94 71 -127 50 -75 229 -255 253 -255 3 0 14 -6 22 -14 27 -24 152
-83 236 -112 73 -25 96 -28 260 -32 145 -3 193 -1 245 13 127 32 249 86 340
148 54 38 210 190 210 205 0 6 4 12 8 14 26 10 113 174 146 273 71 215 54 487
-42 695 -110 236 -313 419 -562 506 -107 37 -161 46 -300 49 -102 2 -144 -1
-227 -20z"/>
</g>
</svg>
